<?xml version="1.0" encoding="iso-8859-1"?>
<!-- Uploaded to: SVG Repo, www.svgrepo.com, Generator: SVG Repo Mixer Tools -->
<svg fill="#000000" height="800px" width="800px" version="1.1" id="Layer_1" xmlns="http://www.w3.org/2000/svg" xmlns:xlink="http://www.w3.org/1999/xlink" 
	 viewBox="0 0 512 512" xml:space="preserve">
<g>
	<g>
		<path d="M256,0C114.837,0,0,114.837,0,256s114.837,256,256,256s256-114.837,256-256S397.163,0,256,0z M356.416,313.749
			l-85.312,85.312c-1.963,1.984-4.331,3.541-6.955,4.629c-2.603,1.067-5.376,1.643-8.149,1.643c-2.773,0-5.547-0.576-8.149-1.643
			c-2.624-1.088-4.992-2.645-6.955-4.629l-85.312-85.312c-8.341-8.341-8.341-21.824,0-30.165s21.824-8.341,30.165,0l48.917,48.917
			V128c0-11.776,9.536-21.333,21.333-21.333s21.333,9.557,21.333,21.333v204.501l48.917-48.917c8.341-8.341,21.824-8.341,30.165,0
			C364.757,291.925,364.757,305.408,356.416,313.749z"/>
	</g>
</g>
</svg>