<?xml version="1.0" encoding="UTF-8"?>
<svg id="Calque_1" data-name="Calque 1" xmlns="http://www.w3.org/2000/svg" viewBox="0 0 798.83 943.28">
  <path d="m399.71,145.1c86.67,0,173.33,0,260,0,22,0,44-.08,66,.07,21.32.15,37.4,15.93,37.23,36.27-.17,20.48-16.29,36.18-37.39,36.18-96.33.02-192.66-.04-288.99-.04-100,0-199.99.04-299.99.06-21.33,0-42.67.03-64-.09-20.63-.12-36.59-15.75-36.69-35.73-.11-20.36,15.62-36.56,36.34-36.64,49.33-.2,98.66-.08,148-.08,59.83,0,119.67,0,179.5,0Z"/>
  <path d="m399.04,72.51c-77.98,0-155.97,0-233.95,0-19,0-38,.25-56.99-.05-14.58-.23-25.6-7.17-32.08-20.18-6.4-12.84-5.27-25.62,3.14-37.32C86.35,4.95,96.47.09,108.77.07,145.43,0,182.1.02,218.76.01c86.65,0,173.31.02,259.96.01,70.16,0,140.31-.06,210.47,0,21.23.01,37.22,15.59,37.41,36.13.18,20.34-15.77,36.23-37.1,36.31-50.16.17-100.32.08-150.47.09-46.66,0-93.32,0-139.98,0v-.03Z"/>
  <path d="m798.75,364.06c-.03-42.25-31.98-73.82-74.27-73.89-21.84-.04-43.67.01-65.51.01-86.51,0-173.02,0-259.53,0v.03c-108.34,0-216.69-.05-325.03.11-6.93,0-14.05.78-20.75,2.51C21.88,301.03.1,329.77.04,363.42c-.1,64.85,0,129.69,0,194.54.01,104.19-.04,208.38.13,312.56.01,6.58.93,13.37,2.7,19.71,9.15,32.88,37.87,53.08,74.15,53.05,100.01-.1,200.02-.06,300.03-.07,116.01,0,232.02.05,348.03-.04,41.72-.03,73.63-31.75,73.65-73.49.11-168.54.1-337.08,0-505.61Zm-218.33,197.49c0,4.16,0,8.32,0,12.48h-.09c0,57.48,0,114.95,0,172.43,0,8.69-.8,17.31-3.57,25.7-7.93,24.03-26.12,39.41-53.73,46.58-11.27,2.93-22.9,4.47-34.63,5.25-35.7,2.36-60.61-15.44-69.95-38.11-11.31-27.46,3.39-57.41,34.53-70.66,10.61-4.51,21.93-7.19,33.42-9.35,12.61-2.37,25.3-4.46,37.92-6.82,3.42-.64,6.88-1.47,10.02-2.74,7-2.84,11.05-7.74,11.92-14.42.38-2.9.64-5.82.64-8.74.02-52.64,0-105.28-.06-157.92,0-2.58-.26-5.17-.71-7.72-.88-5.08-4.36-7.8-10.29-7.98-2.85-.09-5.78,0-8.57.47-46.54,7.99-93.07,16.06-139.59,24.12-25.82,4.47-51.64,8.96-77.45,13.47-2.29.4-4.54,1.02-6.77,1.65-6.16,1.74-9.31,5.56-9.85,11.01-.26,2.68-.31,5.39-.31,8.09-.08,54.89-.11,109.78-.21,164.67-.05,25.98.02,51.96-.46,77.94-.23,12.58-3.31,24.78-10.42,35.98-10.18,16.02-25.81,26.35-45.88,31.61-14.66,3.84-29.72,5.93-45.14,5.66-30.81-.53-57.52-20.4-62.62-46.64-5.39-27.77,10.12-52.31,40.29-63.76,10.93-4.15,22.45-6.58,34.08-8.7,11.36-2.07,22.74-4.03,34.11-6.05,1.4-.25,2.81-.51,4.19-.85,11.34-2.78,17.73-9.75,18.18-19.91.13-2.92.1-5.85.09-8.77-.05-88.52-.09-177.04-.17-265.56,0-4.41.25-8.77,1.72-13.01,2.05-5.91,6.18-10.45,12.64-13.09,3.73-1.52,7.74-2.76,11.79-3.48,48.66-8.58,97.36-17.04,146.04-25.53,35.01-6.1,70.02-12.21,105.05-18.25,7.16-1.23,14.36-2.32,21.58-3.2,9.18-1.12,17.82,2.71,20.86,10.86,1.18,3.16,1.51,6.35,1.5,9.63-.05,54.55-.06,109.1-.09,163.65Z"/>
</svg>